<svg xmlns="http://www.w3.org/2000/svg" xmlns:xlink="http://www.w3.org/1999/xlink" width="500" zoomAndPan="magnify" viewBox="0 0 375 374.999991" height="500" preserveAspectRatio="xMidYMid meet" version="1.0"><defs><g/><clipPath id="8c919b3e39"><path d="M 24.355469 25 L 350.605469 25 L 350.605469 191.367188 L 24.355469 191.367188 Z M 24.355469 25 " clip-rule="nonzero"/></clipPath><clipPath id="3931852a99"><path d="M 49.171875 138.074219 L 325.921875 138.074219 L 325.921875 216 L 49.171875 216 Z M 49.171875 138.074219 " clip-rule="nonzero"/></clipPath></defs><path fill="#3b4757" d="M 187.5 375 C 83.910156 375 0 290.507812 0 187.5 C 0 84.492188 83.910156 0 187.5 0 C 291.089844 0 375 83.910156 375 187.5 C 375 291.089844 290.507812 375 187.5 375 Z M 187.5 11.574219 C 90.277344 11.574219 11.574219 90.277344 11.574219 187.5 C 11.574219 284.722656 90.277344 363.425781 187.5 363.425781 C 284.722656 363.425781 363.425781 284.722656 363.425781 187.5 C 363.425781 90.277344 284.144531 11.574219 187.5 11.574219 Z M 187.5 11.574219 " fill-opacity="1" fill-rule="nonzero"/><g clip-path="url(#8c919b3e39)"><path fill="#101c2a" d="M 24.671875 191.375 C 24.550781 186.046875 24.679688 180.714844 25.066406 175.386719 C 25.476562 170.0625 26.152344 164.75 27.082031 159.480469 C 28.976562 148.886719 31.910156 138.582031 35.875 128.574219 C 39.875 118.554688 44.820312 109.023438 50.707031 99.980469 C 53.648438 95.460938 56.8125 91.105469 60.199219 86.910156 C 63.582031 82.710938 67.164062 78.691406 70.949219 74.84375 C 74.734375 70.996094 78.699219 67.332031 82.847656 63.851562 C 86.996094 60.394531 91.3125 57.148438 95.792969 54.117188 C 98.59375 52.222656 101.453125 50.417969 104.363281 48.699219 C 107.277344 46.980469 110.242188 45.355469 113.253906 43.820312 C 116.269531 42.285156 119.328125 40.847656 122.429688 39.503906 C 125.53125 38.15625 128.671875 36.910156 131.855469 35.757812 C 135.035156 34.609375 138.246094 33.558594 141.492188 32.609375 C 144.738281 31.65625 148.007812 30.804688 151.308594 30.058594 C 154.605469 29.308594 157.921875 28.664062 161.261719 28.121094 C 164.597656 27.578125 167.949219 27.140625 171.316406 26.804688 C 174.679688 26.46875 178.054688 26.238281 181.433594 26.113281 C 184.8125 25.984375 188.191406 25.964844 191.574219 26.046875 C 194.953125 26.128906 198.328125 26.316406 201.699219 26.609375 C 205.066406 26.902344 208.421875 27.296875 211.769531 27.796875 C 215.113281 28.296875 218.4375 28.902344 221.746094 29.609375 C 225.054688 30.3125 228.335938 31.121094 231.59375 32.03125 C 234.847656 32.941406 238.074219 33.949219 241.269531 35.058594 C 244.464844 36.167969 247.621094 37.378906 250.742188 38.683594 C 260.734375 42.894531 270.222656 48.042969 279.199219 54.125 C 283.679688 57.152344 287.992188 60.398438 292.144531 63.859375 C 296.285156 67.324219 300.246094 70.980469 304.035156 74.835938 C 307.820312 78.691406 311.402344 82.714844 314.78125 86.902344 C 318.171875 91.097656 321.332031 95.453125 324.273438 99.972656 C 330.164062 109.011719 335.109375 118.542969 339.105469 128.5625 C 343.074219 138.566406 346.003906 148.863281 347.898438 159.457031 C 348.832031 164.730469 349.503906 170.03125 349.917969 175.367188 C 350.328125 180.703125 350.460938 186.03125 350.3125 191.355469 C 350.3125 191.457031 350.261719 191.507812 350.164062 191.507812 C 350.0625 191.507812 350.011719 191.457031 350.011719 191.355469 C 350.003906 180.683594 348.964844 170.117188 346.890625 159.648438 C 346.113281 155.734375 345.191406 151.855469 344.125 148.011719 C 343.0625 144.167969 341.855469 140.367188 340.511719 136.613281 C 339.164062 132.855469 337.683594 129.15625 336.066406 125.507812 C 334.449219 121.863281 332.699219 118.28125 330.816406 114.765625 C 328.933594 111.246094 326.925781 107.804688 324.789062 104.433594 C 322.65625 101.066406 320.398438 97.777344 318.019531 94.574219 C 315.640625 91.371094 313.148438 88.261719 310.542969 85.242188 C 307.933594 82.222656 305.21875 79.304688 302.398438 76.484375 C 299.574219 73.667969 296.652344 70.953125 293.628906 68.351562 C 290.609375 65.746094 287.492188 63.257812 284.289062 60.882812 C 281.082031 58.511719 277.792969 56.257812 274.421875 54.125 C 271.050781 51.992188 267.605469 49.988281 264.085938 48.113281 C 260.566406 46.234375 256.980469 44.488281 253.332031 42.875 C 249.683594 41.261719 245.980469 39.785156 242.222656 38.445312 C 238.46875 37.101562 234.664062 35.902344 230.820312 34.84375 C 226.972656 33.78125 223.09375 32.863281 219.179688 32.089844 C 208.71875 30.035156 198.15625 29.007812 187.496094 29.007812 C 176.832031 29.007812 166.269531 30.035156 155.808594 32.089844 C 145.347656 34.152344 135.191406 37.226562 125.339844 41.304688 C 120.421875 43.339844 115.621094 45.613281 110.925781 48.125 C 106.234375 50.632812 101.675781 53.363281 97.253906 56.320312 C 92.828125 59.277344 88.558594 62.441406 84.445312 65.816406 C 80.328125 69.1875 76.390625 72.757812 72.625 76.515625 C 68.859375 80.277344 65.289062 84.210938 61.910156 88.320312 C 58.53125 92.433594 55.363281 96.699219 52.402344 101.121094 C 49.441406 105.539062 46.703125 110.09375 44.1875 114.785156 C 41.675781 119.472656 39.394531 124.277344 37.351562 129.1875 C 33.257812 139.039062 30.171875 149.195312 28.097656 159.65625 C 26.023438 170.128906 24.980469 180.703125 24.972656 191.375 C 24.972656 191.476562 24.925781 191.527344 24.824219 191.527344 C 24.726562 191.527344 24.675781 191.476562 24.671875 191.378906 Z M 24.671875 191.375 " fill-opacity="1" fill-rule="nonzero"/></g><g clip-path="url(#3931852a99)"><path fill="#3b4757" d="M 290.941406 211.460938 C 301.605469 211.195312 312.539062 209.660156 323.410156 206.855469 C 324.332031 206.609375 325.089844 205.953125 325.457031 205.074219 C 325.828125 204.191406 325.746094 203.191406 325.273438 202.371094 L 295.464844 151.71875 C 294.871094 150.695312 293.726562 150.121094 292.558594 150.226562 L 284.285156 150.984375 L 284.285156 151.085938 L 283.917969 150.429688 C 283.589844 149.875 282.914062 149.652344 282.320312 149.9375 C 281.644531 150.265625 280.949219 150.574219 280.234375 150.839844 L 276.117188 143.652344 C 275.789062 143.101562 275.113281 142.875 274.519531 143.160156 C 266.800781 146.886719 257.34375 147.398438 244.773438 144.757812 C 241.496094 144.0625 238.179688 143.222656 234.964844 142.402344 C 228.210938 140.683594 221.230469 138.921875 214.144531 138.433594 C 209.519531 138.125 204.441406 139.394531 199.054688 142.199219 C 194.082031 144.800781 189.945312 148.136719 187.160156 150.738281 C 184.375 148.136719 180.242188 144.800781 175.265625 142.199219 C 169.902344 139.394531 164.824219 138.125 160.175781 138.433594 C 153.074219 138.902344 146.113281 140.683594 139.355469 142.402344 C 136.140625 143.222656 132.824219 144.0625 129.550781 144.757812 C 116.980469 147.398438 107.519531 146.886719 99.800781 143.160156 C 99.226562 142.875 98.53125 143.101562 98.203125 143.652344 L 94.152344 150.820312 C 93.433594 150.53125 92.738281 150.246094 92.0625 149.917969 C 91.488281 149.632812 90.792969 149.855469 90.464844 150.410156 L 90.117188 151.023438 L 90.117188 150.960938 L 82.460938 150.203125 C 81.273438 150.082031 80.125 150.675781 79.53125 151.699219 L 49.722656 202.351562 C 49.253906 203.148438 49.171875 204.132812 49.519531 205.011719 C 49.867188 205.890625 50.582031 206.546875 51.484375 206.8125 C 66.410156 211.316406 81.335938 213.28125 95.851562 212.667969 C 108.503906 212.136719 119.742188 209.742188 129.652344 207.613281 C 146.132812 204.089844 159.132812 201.328125 170.292969 208.636719 C 172.789062 210.273438 175.082031 212.320312 177.046875 214.714844 C 177.621094 215.410156 178.480469 215.820312 179.402344 215.820312 L 193.734375 215.820312 C 194.613281 215.820312 195.433594 215.453125 196.027344 214.796875 C 198.707031 211.769531 201.777344 209.230469 205.199219 207.285156 C 217.296875 200.324219 230.238281 202.984375 246.617188 206.363281 C 259.144531 208.941406 273.414062 211.871094 290.941406 211.460938 Z M 282.363281 152.601562 L 284.839844 156.941406 L 284.839844 157.042969 L 284.878906 157.042969 L 308.792969 198.828125 C 298.800781 202.164062 286.683594 202.535156 270.796875 199.976562 C 266.105469 199.21875 260.679688 198.089844 254.96875 196.902344 C 244.382812 194.691406 233.453125 192.398438 224.628906 191.949219 C 217.421875 191.582031 209.785156 192.933594 203.128906 195.777344 C 198.359375 197.804688 194.203125 200.546875 190.824219 203.84375 C 198.257812 189.0625 212.363281 186.359375 223.605469 186.933594 C 232.285156 187.382812 240.332031 189.042969 248.867188 190.804688 C 253.371094 191.722656 258.019531 192.6875 262.726562 193.445312 C 263.710938 193.609375 264.714844 193.773438 265.71875 193.9375 C 278.410156 196.003906 291.554688 198.152344 303.246094 193.855469 C 303.574219 193.730469 303.839844 193.464844 303.960938 193.117188 C 304.085938 192.789062 304.042969 192.398438 303.878906 192.09375 L 281.480469 152.96875 C 281.789062 152.84375 282.074219 152.722656 282.363281 152.601562 Z M 214.023438 140.867188 C 220.902344 141.339844 227.761719 143.078125 234.414062 144.757812 C 237.648438 145.578125 241.007812 146.4375 244.324219 147.132812 C 256.894531 149.773438 266.558594 149.363281 274.601562 145.824219 L 301.054688 192.03125 C 290.285156 195.472656 278.023438 193.464844 266.128906 191.519531 C 265.125 191.355469 264.121094 191.191406 263.136719 191.027344 C 258.46875 190.292969 253.863281 189.328125 249.378906 188.40625 C 241.148438 186.707031 232.632812 184.949219 223.746094 184.476562 C 215.351562 184.046875 208.023438 185.480469 201.984375 188.734375 C 195.945312 191.992188 191.316406 197.027344 188.183594 203.742188 L 188.449219 152.925781 C 192.074219 149.488281 203.070312 140.132812 214.023438 140.867188 Z M 99.820312 145.824219 C 107.847656 149.363281 117.511719 149.773438 130.101562 147.132812 C 133.4375 146.4375 136.777344 145.578125 140.011719 144.757812 C 146.644531 143.078125 153.523438 141.320312 160.402344 140.867188 C 171.355469 140.132812 182.328125 149.46875 185.996094 152.925781 L 185.726562 203.3125 C 182.675781 196.207031 178.132812 191.070312 172.175781 188.019531 C 166.382812 185.050781 159.910156 184.394531 154.628906 184.394531 C 153.214844 184.394531 151.886719 184.4375 150.679688 184.496094 C 141.792969 184.949219 133.277344 186.707031 125.046875 188.429688 C 120.582031 189.347656 115.953125 190.3125 111.308594 191.050781 C 110.304688 191.210938 109.320312 191.375 108.320312 191.539062 C 96.445312 193.484375 84.160156 195.492188 73.390625 192.050781 Z M 92.042969 152.601562 C 92.328125 152.722656 92.636719 152.84375 92.921875 152.96875 L 70.523438 192.113281 C 70.339844 192.421875 70.320312 192.789062 70.441406 193.136719 C 70.566406 193.484375 70.832031 193.730469 71.160156 193.875 C 82.851562 198.195312 95.992188 196.042969 108.6875 193.957031 C 109.691406 193.792969 110.695312 193.628906 111.675781 193.464844 C 116.386719 192.707031 121.03125 191.746094 125.535156 190.824219 C 134.054688 189.0625 142.097656 187.382812 150.800781 186.953125 C 162.574219 186.339844 176.472656 187.976562 183.496094 204.335938 C 180.078125 200.816406 175.839844 197.90625 170.96875 195.796875 C 164.457031 192.953125 156.921875 191.601562 149.757812 191.96875 C 140.910156 192.421875 129.980469 194.714844 119.414062 196.925781 C 113.683594 198.113281 108.277344 199.257812 103.589844 199.996094 C 87.703125 202.535156 75.5625 202.1875 65.589844 198.847656 L 89.503906 157.0625 L 89.523438 157.0625 L 89.523438 157 Z M 180.792969 209.742188 C 178.644531 207.34375 176.25 205.257812 173.628906 203.539062 C 160.339844 194.835938 145.539062 197.988281 128.382812 201.652344 C 118.699219 203.722656 107.746094 206.054688 95.605469 206.566406 C 82.992188 207.101562 70.035156 205.585938 56.992188 202.042969 L 83.832031 156.449219 L 86.863281 156.757812 L 62.765625 198.871094 C 62.582031 199.175781 62.5625 199.546875 62.683594 199.894531 C 62.804688 200.222656 63.074219 200.488281 63.398438 200.628906 C 74.046875 204.5625 86.945312 205.113281 104 202.371094 C 108.75 201.613281 114.195312 200.464844 119.949219 199.277344 C 130.429688 197.089844 141.28125 194.816406 149.921875 194.386719 C 160.832031 193.832031 176.25 197.558594 184.890625 209.742188 Z M 202.128906 202.003906 C 198.542969 204.070312 195.269531 206.671875 192.382812 209.742188 L 188.984375 209.742188 C 197.152344 198.316406 212.507812 193.773438 224.523438 194.386719 C 233.164062 194.835938 244.015625 197.089844 254.5 199.277344 C 260.25 200.488281 265.675781 201.613281 270.445312 202.371094 C 287.5 205.113281 300.398438 204.539062 311.046875 200.628906 C 311.375 200.507812 311.640625 200.242188 311.761719 199.894531 C 311.886719 199.566406 311.84375 199.175781 311.679688 198.871094 L 287.605469 156.777344 L 291.226562 156.449219 L 317.984375 201.898438 C 308.875 203.988281 299.765625 205.15625 290.839844 205.359375 C 274.007812 205.769531 260.109375 202.902344 247.84375 200.382812 C 230.851562 196.902344 216.214844 193.875 202.128906 202.003906 Z M 202.128906 202.003906 " fill-opacity="1" fill-rule="nonzero"/><path fill="#3b4757" d="M 290.941406 211.460938 C 301.605469 211.195312 312.539062 209.660156 323.410156 206.855469 C 324.332031 206.609375 325.089844 205.953125 325.457031 205.074219 C 325.828125 204.191406 325.746094 203.191406 325.273438 202.371094 L 295.464844 151.71875 C 294.871094 150.695312 293.726562 150.121094 292.558594 150.226562 L 284.285156 150.984375 L 284.285156 151.085938 L 283.917969 150.429688 C 283.589844 149.875 282.914062 149.652344 282.320312 149.9375 C 281.644531 150.265625 280.949219 150.574219 280.234375 150.839844 L 276.117188 143.652344 C 275.789062 143.101562 275.113281 142.875 274.519531 143.160156 C 266.800781 146.886719 257.34375 147.398438 244.773438 144.757812 C 241.496094 144.0625 238.179688 143.222656 234.964844 142.402344 C 228.210938 140.683594 221.230469 138.921875 214.144531 138.433594 C 209.519531 138.125 204.441406 139.394531 199.054688 142.199219 C 194.082031 144.800781 189.945312 148.136719 187.160156 150.738281 C 184.375 148.136719 180.242188 144.800781 175.265625 142.199219 C 169.902344 139.394531 164.824219 138.125 160.175781 138.433594 C 153.074219 138.902344 146.113281 140.683594 139.355469 142.402344 C 136.140625 143.222656 132.824219 144.0625 129.550781 144.757812 C 116.980469 147.398438 107.519531 146.886719 99.800781 143.160156 C 99.226562 142.875 98.53125 143.101562 98.203125 143.652344 L 94.152344 150.820312 C 93.433594 150.53125 92.738281 150.246094 92.0625 149.917969 C 91.488281 149.632812 90.792969 149.855469 90.464844 150.410156 L 90.117188 151.023438 L 90.117188 150.960938 L 82.460938 150.203125 C 81.273438 150.082031 80.125 150.675781 79.53125 151.699219 L 49.722656 202.351562 C 49.253906 203.148438 49.171875 204.132812 49.519531 205.011719 C 49.867188 205.890625 50.582031 206.546875 51.484375 206.8125 C 66.410156 211.316406 81.335938 213.28125 95.851562 212.667969 C 108.503906 212.136719 119.742188 209.742188 129.652344 207.613281 C 146.132812 204.089844 159.132812 201.328125 170.292969 208.636719 C 172.789062 210.273438 175.082031 212.320312 177.046875 214.714844 C 177.621094 215.410156 178.480469 215.820312 179.402344 215.820312 L 193.734375 215.820312 C 194.613281 215.820312 195.433594 215.453125 196.027344 214.796875 C 198.707031 211.769531 201.777344 209.230469 205.199219 207.285156 C 217.296875 200.324219 230.238281 202.984375 246.617188 206.363281 C 259.144531 208.941406 273.414062 211.871094 290.941406 211.460938 Z M 282.363281 152.601562 L 284.839844 156.941406 L 284.839844 157.042969 L 284.878906 157.042969 L 308.792969 198.828125 C 298.800781 202.164062 286.683594 202.535156 270.796875 199.976562 C 266.105469 199.21875 260.679688 198.089844 254.96875 196.902344 C 244.382812 194.691406 233.453125 192.398438 224.628906 191.949219 C 217.421875 191.582031 209.785156 192.933594 203.128906 195.777344 C 198.359375 197.804688 194.203125 200.546875 190.824219 203.84375 C 198.257812 189.0625 212.363281 186.359375 223.605469 186.933594 C 232.285156 187.382812 240.332031 189.042969 248.867188 190.804688 C 253.371094 191.722656 258.019531 192.6875 262.726562 193.445312 C 263.710938 193.609375 264.714844 193.773438 265.71875 193.9375 C 278.410156 196.003906 291.554688 198.152344 303.246094 193.855469 C 303.574219 193.730469 303.839844 193.464844 303.960938 193.117188 C 304.085938 192.789062 304.042969 192.398438 303.878906 192.09375 L 281.480469 152.96875 C 281.789062 152.84375 282.074219 152.722656 282.363281 152.601562 Z M 214.023438 140.867188 C 220.902344 141.339844 227.761719 143.078125 234.414062 144.757812 C 237.648438 145.578125 241.007812 146.4375 244.324219 147.132812 C 256.894531 149.773438 266.558594 149.363281 274.601562 145.824219 L 301.054688 192.03125 C 290.285156 195.472656 278.023438 193.464844 266.128906 191.519531 C 265.125 191.355469 264.121094 191.191406 263.136719 191.027344 C 258.46875 190.292969 253.863281 189.328125 249.378906 188.40625 C 241.148438 186.707031 232.632812 184.949219 223.746094 184.476562 C 215.351562 184.046875 208.023438 185.480469 201.984375 188.734375 C 195.945312 191.992188 191.316406 197.027344 188.183594 203.742188 L 188.449219 152.925781 C 192.074219 149.488281 203.070312 140.132812 214.023438 140.867188 Z M 99.820312 145.824219 C 107.847656 149.363281 117.511719 149.773438 130.101562 147.132812 C 133.4375 146.4375 136.777344 145.578125 140.011719 144.757812 C 146.644531 143.078125 153.523438 141.320312 160.402344 140.867188 C 171.355469 140.132812 182.328125 149.46875 185.996094 152.925781 L 185.726562 203.3125 C 182.675781 196.207031 178.132812 191.070312 172.175781 188.019531 C 166.382812 185.050781 159.910156 184.394531 154.628906 184.394531 C 153.214844 184.394531 151.886719 184.4375 150.679688 184.496094 C 141.792969 184.949219 133.277344 186.707031 125.046875 188.429688 C 120.582031 189.347656 115.953125 190.3125 111.308594 191.050781 C 110.304688 191.210938 109.320312 191.375 108.320312 191.539062 C 96.445312 193.484375 84.160156 195.492188 73.390625 192.050781 Z M 92.042969 152.601562 C 92.328125 152.722656 92.636719 152.84375 92.921875 152.96875 L 70.523438 192.113281 C 70.339844 192.421875 70.320312 192.789062 70.441406 193.136719 C 70.566406 193.484375 70.832031 193.730469 71.160156 193.875 C 82.851562 198.195312 95.992188 196.042969 108.6875 193.957031 C 109.691406 193.792969 110.695312 193.628906 111.675781 193.464844 C 116.386719 192.707031 121.03125 191.746094 125.535156 190.824219 C 134.054688 189.0625 142.097656 187.382812 150.800781 186.953125 C 162.574219 186.339844 176.472656 187.976562 183.496094 204.335938 C 180.078125 200.816406 175.839844 197.90625 170.96875 195.796875 C 164.457031 192.953125 156.921875 191.601562 149.757812 191.96875 C 140.910156 192.421875 129.980469 194.714844 119.414062 196.925781 C 113.683594 198.113281 108.277344 199.257812 103.589844 199.996094 C 87.703125 202.535156 75.5625 202.1875 65.589844 198.847656 L 89.503906 157.0625 L 89.523438 157.0625 L 89.523438 157 Z M 180.792969 209.742188 C 178.644531 207.34375 176.25 205.257812 173.628906 203.539062 C 160.339844 194.835938 145.539062 197.988281 128.382812 201.652344 C 118.699219 203.722656 107.746094 206.054688 95.605469 206.566406 C 82.992188 207.101562 70.035156 205.585938 56.992188 202.042969 L 83.832031 156.449219 L 86.863281 156.757812 L 62.765625 198.871094 C 62.582031 199.175781 62.5625 199.546875 62.683594 199.894531 C 62.804688 200.222656 63.074219 200.488281 63.398438 200.628906 C 74.046875 204.5625 86.945312 205.113281 104 202.371094 C 108.75 201.613281 114.195312 200.464844 119.949219 199.277344 C 130.429688 197.089844 141.28125 194.816406 149.921875 194.386719 C 160.832031 193.832031 176.25 197.558594 184.890625 209.742188 Z M 202.128906 202.003906 C 198.542969 204.070312 195.269531 206.671875 192.382812 209.742188 L 188.984375 209.742188 C 197.152344 198.316406 212.507812 193.773438 224.523438 194.386719 C 233.164062 194.835938 244.015625 197.089844 254.5 199.277344 C 260.25 200.488281 265.675781 201.613281 270.445312 202.371094 C 287.5 205.113281 300.398438 204.539062 311.046875 200.628906 C 311.375 200.507812 311.640625 200.242188 311.761719 199.894531 C 311.886719 199.566406 311.84375 199.175781 311.679688 198.871094 L 287.605469 156.777344 L 291.226562 156.449219 L 317.984375 201.898438 C 308.875 203.988281 299.765625 205.15625 290.839844 205.359375 C 274.007812 205.769531 260.109375 202.902344 247.84375 200.382812 C 230.851562 196.902344 216.214844 193.875 202.128906 202.003906 Z M 202.128906 202.003906 " fill-opacity="1" fill-rule="nonzero"/></g><g fill="#3b4757" fill-opacity="1"><g transform="translate(143.324365, 103.944974)"><g><path d="M 18.53125 0 L 14.609375 -7.421875 L 9.34375 -7.421875 L 9.34375 0 L 2.640625 0 L 2.640625 -26.375 L 14.421875 -26.375 C 17.921875 -26.375 20.625 -25.578125 22.53125 -23.984375 C 24.4375 -22.390625 25.390625 -20.117188 25.390625 -17.171875 C 25.390625 -13.109375 23.796875 -10.285156 20.609375 -8.703125 L 26.140625 0 Z M 9.34375 -12.703125 L 14.421875 -12.703125 C 15.878906 -12.703125 17.007812 -13.0625 17.8125 -13.78125 C 18.625 -14.507812 19.03125 -15.566406 19.03125 -16.953125 C 19.03125 -18.304688 18.625 -19.332031 17.8125 -20.03125 C 17.007812 -20.738281 15.878906 -21.09375 14.421875 -21.09375 L 9.34375 -21.09375 Z M 9.34375 -12.703125 "/></g></g></g><g fill="#3b4757" fill-opacity="1"><g transform="translate(173.896255, 103.944974)"><g><path d="M 18 -26.40625 L 18 -8.546875 C 18 -5.765625 17.1875 -3.59375 15.5625 -2.03125 C 13.945312 -0.476562 11.722656 0.296875 8.890625 0.296875 C 5.296875 0.296875 2.269531 -1.109375 -0.1875 -3.921875 L 2.90625 -8.40625 C 4.78125 -6.445312 6.625 -5.46875 8.4375 -5.46875 C 10.320312 -5.46875 11.265625 -6.546875 11.265625 -8.703125 L 11.265625 -20.984375 L 2.21875 -20.984375 L 2.21875 -26.40625 Z M 18 -26.40625 "/></g></g></g><g fill="#3b4757" fill-opacity="1"><g transform="translate(197.390357, 103.944974)"><g><path d="M 31.609375 0 L 25.6875 0 L 25.65625 -17.140625 L 19.328125 -2.640625 L 14.953125 -2.640625 L 8.625 -17.140625 L 8.625 0 L 2.640625 0 L 2.640625 -26.40625 L 9.984375 -26.40625 L 17.140625 -10.703125 L 24.296875 -26.40625 L 31.609375 -26.40625 Z M 31.609375 0 "/></g></g></g><g fill="#3b4757" fill-opacity="1"><g transform="translate(125.358997, 264.631174)"><g><path d="M 12.671875 -21.015625 L 12.671875 -6.484375 C 12.671875 -4.378906 12.085938 -2.742188 10.921875 -1.578125 C 9.765625 -0.421875 8.164062 0.15625 6.125 0.15625 C 3.644531 0.15625 1.582031 -0.859375 -0.0625 -2.890625 L 1.625 -5.578125 C 3.039062 -4.035156 4.53125 -3.265625 6.09375 -3.265625 C 7.050781 -3.265625 7.789062 -3.550781 8.3125 -4.125 C 8.832031 -4.695312 9.09375 -5.523438 9.09375 -6.609375 L 9.09375 -17.84375 L 1.828125 -17.84375 L 1.828125 -21.015625 Z M 12.671875 -21.015625 "/></g></g></g><g fill="#3b4757" fill-opacity="1"><g transform="translate(141.395942, 264.631174)"><g><path d="M 16.34375 -4.75 L 5.734375 -4.75 L 3.71875 0 L 0.03125 0 L 9.3125 -21.015625 L 12.9375 -21.015625 L 22.140625 0 L 18.34375 0 Z M 14.984375 -7.890625 L 11.015625 -17.234375 L 7.0625 -7.890625 Z M 14.984375 -7.890625 "/></g></g></g><g fill="#3b4757" fill-opacity="1"><g transform="translate(164.610427, 264.631174)"><g><path d="M 16.09375 0 L 12.25 -6.359375 C 12.050781 -6.347656 11.734375 -6.34375 11.296875 -6.34375 L 6.3125 -6.34375 L 6.3125 0 L 2.765625 0 L 2.765625 -21.015625 L 11.296875 -21.015625 C 13.972656 -21.015625 16.050781 -20.390625 17.53125 -19.140625 C 19.019531 -17.890625 19.765625 -16.125 19.765625 -13.84375 C 19.765625 -12.164062 19.390625 -10.742188 18.640625 -9.578125 C 17.890625 -8.421875 16.8125 -7.570312 15.40625 -7.03125 L 20.125 0 Z M 6.3125 -9.515625 L 11.296875 -9.515625 C 14.691406 -9.515625 16.390625 -10.925781 16.390625 -13.75 C 16.390625 -16.476562 14.691406 -17.84375 11.296875 -17.84375 L 6.3125 -17.84375 Z M 6.3125 -9.515625 "/></g></g></g><g fill="#3b4757" fill-opacity="1"><g transform="translate(187.374433, 264.631174)"><g><path d="M 2.765625 -21.015625 L 11.375 -21.015625 C 14.519531 -21.015625 17.117188 -20.023438 19.171875 -18.046875 C 21.222656 -16.066406 22.25 -13.554688 22.25 -10.515625 C 22.25 -7.472656 21.21875 -4.957031 19.15625 -2.96875 C 17.09375 -0.988281 14.472656 0 11.296875 0 L 2.765625 0 Z M 6.3125 -17.84375 L 6.3125 -3.1875 L 11.46875 -3.1875 C 13.53125 -3.1875 15.242188 -3.867188 16.609375 -5.234375 C 17.984375 -6.609375 18.671875 -8.359375 18.671875 -10.484375 C 18.671875 -12.609375 17.960938 -14.363281 16.546875 -15.75 C 15.140625 -17.144531 13.398438 -17.84375 11.328125 -17.84375 Z M 6.3125 -17.84375 "/></g></g></g><g fill="#3b4757" fill-opacity="1"><g transform="translate(211.700091, 264.631174)"><g><path d="M 6.3125 0 L 2.765625 0 L 2.765625 -21.015625 L 6.3125 -21.015625 Z M 6.3125 0 "/></g></g></g><g fill="#3b4757" fill-opacity="1"><g transform="translate(221.820825, 264.631174)"><g><path d="M 24.984375 0 L 21.71875 0 L 21.6875 -15.703125 L 15.046875 -2.1875 L 12.734375 -2.1875 L 6.09375 -15.703125 L 6.09375 0 L 2.765625 0 L 2.765625 -21.015625 L 6.96875 -21.015625 L 13.90625 -7.0625 L 20.8125 -21.015625 L 24.984375 -21.015625 Z M 24.984375 0 "/></g></g></g><g fill="#3b4757" fill-opacity="1"><g transform="translate(76.485436, 299.782114)"><g><path d="M 20.15625 -4.859375 L 8.625 -4.859375 L 6.703125 0 L -0.1875 0 L 11.1875 -26.375 L 18.078125 -26.375 L 29.203125 0 L 22.03125 0 Z M 18.203125 -9.953125 L 14.421875 -19.703125 L 10.578125 -9.953125 Z M 18.203125 -9.953125 "/></g></g></g><g fill="#3b4757" fill-opacity="1"><g transform="translate(105.481154, 299.782114)"><g><path d="M 9.34375 -5.609375 L 20.53125 -5.609375 L 20.53125 0 L 2.640625 0 L 2.640625 -26.375 L 9.34375 -26.375 Z M 9.34375 -5.609375 "/></g></g></g><g fill="#3b4757" fill-opacity="1"><g transform="translate(126.568965, 299.782114)"><g><path d="M 17.140625 0 L 10.203125 0 L -0.03125 -26.375 L 7.125 -26.375 L 13.859375 -6.96875 L 20.609375 -26.375 L 27.5 -26.375 Z M 17.140625 0 "/></g></g></g><g fill="#3b4757" fill-opacity="1"><g transform="translate(154.020755, 299.782114)"><g><path d="M 15.140625 -26.59375 C 19.234375 -26.59375 22.632812 -25.316406 25.34375 -22.765625 C 28.0625 -20.222656 29.421875 -17.039062 29.421875 -13.21875 C 29.421875 -9.375 28.054688 -6.160156 25.328125 -3.578125 C 22.609375 -0.992188 19.210938 0.296875 15.140625 0.296875 C 11.078125 0.296875 7.6875 -0.988281 4.96875 -3.5625 C 2.257812 -6.132812 0.90625 -9.351562 0.90625 -13.21875 C 0.90625 -17.0625 2.257812 -20.25 4.96875 -22.78125 C 7.6875 -25.320312 11.078125 -26.59375 15.140625 -26.59375 Z M 15.21875 -20.984375 C 13.15625 -20.984375 11.394531 -20.234375 9.9375 -18.734375 C 8.488281 -17.242188 7.765625 -15.394531 7.765625 -13.1875 C 7.765625 -10.976562 8.5 -9.113281 9.96875 -7.59375 C 11.4375 -6.070312 13.1875 -5.3125 15.21875 -5.3125 C 17.25 -5.3125 18.972656 -6.070312 20.390625 -7.59375 C 21.816406 -9.113281 22.53125 -10.976562 22.53125 -13.1875 C 22.53125 -15.394531 21.816406 -17.242188 20.390625 -18.734375 C 18.972656 -20.234375 17.25 -20.984375 15.21875 -20.984375 Z M 15.21875 -20.984375 "/></g></g></g><g fill="#3b4757" fill-opacity="1"><g transform="translate(184.334467, 299.782114)"><g><path d="M 18.53125 0 L 14.609375 -7.421875 L 9.34375 -7.421875 L 9.34375 0 L 2.640625 0 L 2.640625 -26.375 L 14.421875 -26.375 C 17.921875 -26.375 20.625 -25.578125 22.53125 -23.984375 C 24.4375 -22.390625 25.390625 -20.117188 25.390625 -17.171875 C 25.390625 -13.109375 23.796875 -10.285156 20.609375 -8.703125 L 26.140625 0 Z M 9.34375 -12.703125 L 14.421875 -12.703125 C 15.878906 -12.703125 17.007812 -13.0625 17.8125 -13.78125 C 18.625 -14.507812 19.03125 -15.566406 19.03125 -16.953125 C 19.03125 -18.304688 18.625 -19.332031 17.8125 -20.03125 C 17.007812 -20.738281 15.878906 -21.09375 14.421875 -21.09375 L 9.34375 -21.09375 Z M 9.34375 -12.703125 "/></g></g></g><g fill="#3b4757" fill-opacity="1"><g transform="translate(211.597975, 299.782114)"><g><path d="M 20.15625 -4.859375 L 8.625 -4.859375 L 6.703125 0 L -0.1875 0 L 11.1875 -26.375 L 18.078125 -26.375 L 29.203125 0 L 22.03125 0 Z M 18.203125 -9.953125 L 14.421875 -19.703125 L 10.578125 -9.953125 Z M 18.203125 -9.953125 "/></g></g></g><g fill="#3b4757" fill-opacity="1"><g transform="translate(240.593693, 299.782114)"><g><path d="M 2.640625 -26.375 L 13.96875 -26.375 C 18.113281 -26.375 21.484375 -25.15625 24.078125 -22.71875 C 26.679688 -20.28125 27.984375 -17.101562 27.984375 -13.1875 C 27.984375 -9.289062 26.664062 -6.117188 24.03125 -3.671875 C 21.394531 -1.222656 17.957031 0 13.71875 0 L 2.640625 0 Z M 9.34375 -21.015625 L 9.34375 -5.34375 L 14.125 -5.34375 C 16.1875 -5.34375 17.875 -6.066406 19.1875 -7.515625 C 20.507812 -8.960938 21.171875 -10.835938 21.171875 -13.140625 C 21.171875 -15.453125 20.476562 -17.34375 19.09375 -18.8125 C 17.71875 -20.28125 15.960938 -21.015625 13.828125 -21.015625 Z M 9.34375 -21.015625 "/></g></g></g><g fill="#3b4757" fill-opacity="1"><g transform="translate(269.476453, 299.782114)"><g><path d="M 20.15625 -4.859375 L 8.625 -4.859375 L 6.703125 0 L -0.1875 0 L 11.1875 -26.375 L 18.078125 -26.375 L 29.203125 0 L 22.03125 0 Z M 18.203125 -9.953125 L 14.421875 -19.703125 L 10.578125 -9.953125 Z M 18.203125 -9.953125 "/></g></g></g></svg>